<?xml version="1.0" encoding="UTF-8"?>
<svg id="Capa_2" data-name="Capa 2" xmlns="http://www.w3.org/2000/svg" viewBox="0 0 234.42 234.42">
  <defs>
    <style>
      .cls-1 {
        fill: #eb8aad;
      }

      .cls-2 {
        fill: #ffcde9;
      }

      .cls-3 {
        fill: #fdf4a0;
      }
    </style>
  </defs>
  <g id="Capa_2-2" data-name="Capa 2">
    <g>
      <g>
        <path class="cls-1" d="M117.21,117.21s-17.49,85.47-17.49,96.51c0,9.75,3.82,20.7,17.49,20.7s17.49-10.95,17.49-20.7c0-11.04-17.49-96.51-17.49-96.51Z"/>
        <path class="cls-1" d="M117.21,117.21s17.49-85.47,17.49-96.51c0-9.75-3.82-20.7-17.49-20.7s-17.49,10.95-17.49,20.7c0,11.04,17.49,96.51,17.49,96.51Z"/>
        <path class="cls-1" d="M117.21,117.21s-72.8,48.07-80.61,55.87c-6.9,6.9-11.93,17.34-2.27,27s20.11,4.63,27-2.27c7.81-7.81,55.87-80.61,55.87-80.61Z"/>
        <path class="cls-1" d="M117.21,117.21s72.8-48.07,80.61-55.87c6.9-6.9,11.93-17.34,2.27-27s-20.11-4.63-27,2.27c-7.81,7.81-55.87,80.61-55.87,80.61Z"/>
        <path class="cls-1" d="M117.21,117.21s-85.47-17.49-96.51-17.49c-9.75,0-20.7,3.82-20.7,17.49s10.95,17.49,20.7,17.49c11.04,0,96.51-17.49,96.51-17.49Z"/>
        <path class="cls-1" d="M117.21,117.21s85.47,17.49,96.51,17.49c9.75,0,20.7-3.82,20.7-17.49s-10.95-17.49-20.7-17.49c-11.04,0-96.51,17.49-96.51,17.49Z"/>
        <path class="cls-1" d="M117.21,117.21s48.07,72.8,55.87,80.61c6.9,6.9,17.34,11.93,27,2.27s4.63-20.11-2.27-27c-7.81-7.81-80.61-55.87-80.61-55.87Z"/>
        <path class="cls-1" d="M117.21,117.21S69.14,44.41,61.33,36.6c-6.9-6.9-17.34-11.93-27-2.27s-4.63,20.11,2.27,27c7.81,7.81,80.61,55.87,80.61,55.87Z"/>
      </g>
      <g>
        <path class="cls-2" d="M117.21,117.21s-48.8,72.32-53.01,82.52c-3.72,9.01-4.37,20.59,8.26,25.81,12.63,5.22,20.34-3.44,24.07-12.45,4.22-10.2,20.68-95.87,20.68-95.87Z"/>
        <path class="cls-2" d="M117.21,117.21s48.8-72.32,53.01-82.52c3.72-9.01,4.37-20.59-8.26-25.81-12.63-5.22-20.34,3.44-24.07,12.45-4.22,10.2-20.68,95.87-20.68,95.87Z"/>
        <path class="cls-2" d="M117.21,117.21s16.73,85.62,20.98,95.81c3.75,9,11.49,17.64,24.11,12.38,12.61-5.26,11.93-16.83,8.18-25.83-4.25-10.19-53.26-82.36-53.26-82.36Z"/>
        <path class="cls-2" d="M117.21,117.21s-16.73-85.62-20.98-95.81c-3.75-9-11.49-17.64-24.11-12.38-12.61,5.26-11.93,16.83-8.18,25.83,4.25,10.19,53.26,82.36,53.26,82.36Z"/>
        <path class="cls-2" d="M117.21,117.21s-85.66,16.54-95.86,20.76c-9.01,3.73-17.66,11.45-12.43,24.08,5.23,12.62,16.81,11.97,25.82,8.24,10.2-4.22,82.47-53.08,82.47-53.08Z"/>
        <path class="cls-2" d="M117.21,117.21s85.66-16.54,95.86-20.76c9.01-3.73,17.66-11.45,12.43-24.08-5.23-12.62-16.81-11.97-25.82-8.24-10.2,4.22-82.47,53.08-82.47,53.08Z"/>
        <path class="cls-2" d="M117.21,117.21s72.17,49.02,82.36,53.26c9,3.75,20.58,4.43,25.83-8.18,5.26-12.61-3.38-20.35-12.38-24.11-10.19-4.25-95.81-20.98-95.81-20.98Z"/>
        <path class="cls-2" d="M117.21,117.21S45.04,68.19,34.85,63.95c-9-3.75-20.58-4.43-25.83,8.18-5.26,12.61,3.38,20.35,12.38,24.11,10.19,4.25,95.81,20.98,95.81,20.98Z"/>
      </g>
      <circle class="cls-3" cx="117.21" cy="117.02" r="40.87"/>
    </g>
  </g>
</svg>