<?xml version="1.0" encoding="UTF-8"?>
<svg id="Capa_2" data-name="Capa 2" xmlns="http://www.w3.org/2000/svg" viewBox="0 0 81.86 104.43">
  <defs>
    <style>
      .cls-1 {
        fill: #bdeaa3;
      }
    </style>
  </defs>
  <g id="Capa_2-2" data-name="Capa 2">
    <g>
      <path class="cls-1" d="M57.45,56.48S25.05,26.5,20.19,23.88c-4.29-2.31-10.26-2.78-14.34,4.81-4.09,7.59-.41,12.31,3.88,14.62,4.86,2.62,47.72,13.16,47.72,13.16Z"/>
      <path class="cls-1" d="M57.45,56.48s-34.4,27.12-37.88,31.4c-3.07,3.79-4.89,9.36.95,14.1,5.83,4.74,10.92,1.81,13.99-1.97,3.48-4.29,22.94-43.53,22.94-43.53Z"/>
      <path class="cls-1" d="M57.45,56.48s3.7-43.65,5.37-48.91c1.47-4.65,5.12-9.24,12.29-6.97s7.52,8.12,6.05,12.77c-1.66,5.26-23.71,43.11-23.71,43.11Z"/>
      <path class="cls-1" d="M57.46,56.68s-44.13-.78-49.5.5c-4.74,1.14-9.5,4.77-7.49,13.17s7.9,9.48,12.64,8.34c5.37-1.29,44.34-22.01,44.34-22.01Z"/>
      <path class="cls-1" d="M57.55,56.53S32.6,20.11,30.72,14.92c-1.66-4.58-1.25-10.55,6.87-13.5,8.12-2.94,12.26,1.38,13.92,5.97,1.88,5.19,6.04,49.14,6.04,49.14Z"/>
    </g>
  </g>
</svg>