<?xml version="1.0" encoding="UTF-8"?>
<svg id="Capa_2" data-name="Capa 2" xmlns="http://www.w3.org/2000/svg" viewBox="0 0 113.3 68.94">
  <defs>
    <style>
      .cls-1 {
        fill: #ffdb73;
      }
    </style>
  </defs>
  <g id="Capa_2-2" data-name="Capa 2">
    <g>
      <path class="cls-1" d="M58.58,11.36s-20.25,39.22-21.47,44.6c-1.08,4.75.05,10.63,8.46,12.54,8.41,1.91,11.97-2.89,13.06-7.64,1.23-5.38-.05-49.5-.05-49.5Z"/>
      <path class="cls-1" d="M58.58,11.36s35.31,25.92,40.37,28.13c4.47,1.95,10.33,2.21,13.33-4.67,3.01-6.89-1.17-11.01-5.64-12.96-5.06-2.21-48.07-10.5-48.07-10.5Z"/>
      <path class="cls-1" d="M58.58,11.36S15.52,19.43,10.01,19.24C5.13,19.06-.26,16.76,0,9.25.28,1.74,5.83-.16,10.7.01c5.52.2,47.88,11.35,47.88,11.35Z"/>
      <path class="cls-1" d="M58.77,11.29s11.02,42.74,13.69,47.57c2.36,4.27,7.13,7.88,14.69,3.7s7.02-10.14,4.66-14.41c-2.67-4.83-33.04-36.86-33.04-36.86Z"/>
      <path class="cls-1" d="M58.6,11.26S30.16,45.02,25.66,48.21c-3.98,2.82-9.84,4.02-14.84-3.02s-1.94-12.18,2.04-15.01c4.5-3.2,45.74-18.93,45.74-18.93Z"/>
    </g>
  </g>
</svg>